<?xml version="1.0" standalone="yes"?>
<svg xmlns="http://www.w3.org/2000/svg" width="222" height="210">
<path style="fill:#ccc771; stroke:none;" d="M0 0L0 209L33 209L33 202L18 202L18 198L15 198L15 194L11 194L11 187L7 187L7 161L11 161L11 143L7 143L7 139L4 139L4 117L7 117L7 113L11 113L11 102L15 102L15 98C17.364 97.5175 17.5175 97.364 18 95L26 95L26 91L33 91L33 87L52 87L52 91L59 91L59 87L63 87L63 80L66 80L66 73L52 73L52 69L48 69L48 65L44 65L44 54L48 54L48 47L52 47L52 43L55 43L55 39L59 39L59 36L63 36L63 32L66 32L66 21L70 21L70 14L74 14L74 10L77 10L77 6L114 6L114 10L118 10L118 14L122 14C122.482 16.364 122.636 16.5175 125 17L125 32L133 32L133 28L144 28L144 32L147 32L147 43L144 43L144 50L140 50L140 54L136 54L133 61L140 61L140 65L170 65L170 61C172.364 60.5175 172.518 60.364 173 58L181 58C181.482 60.364 181.636 60.5175 184 61L184 65L195 65L195 61L199 61L199 58L206 58L206 61L210 61L210 87L214 87L214 91L218 91L218 109L214 109L214 113L147 113L147 117L136 117L136 120L140 120L140 124L144 124L144 128L147 128L147 132L151 132L151 135L155 135L155 139L177 139L177 135L173 135C172.518 132.636 172.364 132.482 170 132L170 117L181 117L181 120L188 120L188 117L199 117L199 128L195 128L195 132L192 132L192 139L195 139L195 157L192 157L192 161L195 161L195 168L199 168L199 176L203 176L203 187L199 187L199 198L195 198L195 202C192.636 202.482 192.482 202.636 192 205L177 205L177 202L173 202L173 198L170 198L170 191L166 191L166 194L162 194L162 198L159 198L159 209L222 209L222 0L0 0z"/>
<path style="fill:#000000; stroke:none;" d="M77 6L77 10L74 10L74 14L70 14L70 21L66 21L66 32L63 32L63 36L59 36L59 39L55 39L55 43L52 43L52 47L48 47L48 54L44 54L44 65L48 65L48 69L52 69L52 73L66 73L66 80L63 80L63 87L59 87L59 91L52 91L52 87L33 87L33 91L52 91L52 95L59 95L59 98L55 98L55 106L59 106L59 98L63 98L63 87L66 87L66 80L70 80L70 73L74 73L74 65L77 65L77 58L81 58L81 54L92 54L92 50L125 50L125 65L140 65L140 69L170 69L170 65L173 65L173 61L181 61L181 65L177 65L177 73L181 73L181 65L184 65L184 69L199 69L199 61L206 61L206 65L203 65L203 73L206 73L206 87L210 87L210 91L214 91L214 109L147 109L147 113L88 113L88 109L81 109L81 113L88 113L88 117L129 117L129 120L136 120L136 124L140 124L140 128L144 128L144 132C146.124 132.899 146.101 132.876 147 135L151 135L151 139L133 139L133 132L129 132L129 135L125 135L125 139L122 139L122 146L118 146L118 154L114 154L114 161L118 161L118 154L122 154L122 146L125 146L125 139L129 139L129 143L166 143L166 161L159 161L159 165L129 165L129 168L151 168L151 172L155 172L155 179L159 179L159 183L162 183L162 187L166 187L166 191L162 191C161.101 193.124 161.124 193.101 159 194L159 198L155 198L155 202L151 202L151 198L147 198L147 194L144 194L144 187L140 187L140 191L136 191C135.101 193.124 135.124 193.101 133 194L133 198L129 198L129 179L125 179L125 209L151 209L151 205L155 205L155 209L159 209L159 198L162 198L162 194L166 194L166 191L170 191L170 198L173 198L173 202L177 202L177 205L192 205C192.899 202.876 192.876 202.899 195 202L195 198L199 198L199 187L203 187L203 176L199 176L199 168L195 168L195 161L192 161L192 157L195 157L195 139L192 139L192 132L195 132L195 128L199 128L199 117L188 117L188 120L181 120L181 117L170 117L170 132C172.124 132.899 172.101 132.876 173 135L177 135L177 139L155 139L155 135L151 135L151 132L147 132L147 128L144 128L144 124L140 124L140 120L136 120L136 117L147 117L147 113L214 113L214 109L218 109L218 91L214 91L214 87L210 87L210 61L206 61L206 58L199 58L199 61L195 61L195 65L184 65L184 61C181.876 60.1007 181.899 60.1236 181 58L173 58C172.101 60.1236 172.124 60.1007 170 61L170 65L140 65L140 61L133 61C133.899 58.8764 133.876 58.8993 136 58L136 54L140 54L140 50L144 50L144 43L147 43L147 32L144 32L144 28L133 28L133 32L125 32L125 17C122.876 16.1007 122.899 16.1237 122 14L118 14L118 10L114 10L114 6L77 6z"/>
<path style="fill:#efb46f; stroke:none;" d="M77 10L77 17L81 17L81 21L85 21L85 17L81 17L81 10L77 10z"/>
<path style="fill:#dc8b54; stroke:none;" d="M81 10L81 17L85 17L85 10L81 10z"/>
<path style="fill:#ac5438; stroke:none;" d="M85 10L85 25L88 25L88 21L92 21L92 25L96 25L96 21L92 21L92 17L96 17L96 14L100 14L100 10L96 10L96 14L92 14L92 10L85 10z"/>
<path style="fill:#822f25; stroke:none;" d="M92 10L92 14L96 14L96 10L92 10M100 10L100 14L96 14L96 17L92 17L92 21L96 21L96 25L107 25L107 28L111 28C111.899 25.8764 111.876 25.8993 114 25L114 21L111 21C111.674 18.7026 111.965 18.2259 114 17L114 14L111 14L111 10L100 10z"/>
<path style="fill:#4a2024; stroke:none;" d="M111 10L111 14L114 14L114 10L111 10z"/>
<path style="fill:#ac5438; stroke:none;" d="M74 14L74 21L77 21L77 25L81 25L81 21L77 21L77 14L74 14z"/>
<path style="fill:#822f25; stroke:none;" d="M88 14L88 17L92 17L92 14L88 14z"/>
<path style="fill:#4a2024; stroke:none;" d="M107 14L107 17L111 17L111 14L107 14M114 14C113.101 16.1236 113.124 16.1007 111 17L111 21L114 21L114 25L111 25L111 32L122 32L122 17L118 17L118 14L114 14z"/>
<path style="fill:#dc8b54; stroke:none;" d="M77 17L77 21L81 21L81 17L77 17z"/>
<path style="fill:#822f25; stroke:none;" d="M70 21L70 28L77 28L77 21L70 21z"/>
<path style="fill:#dc8b54; stroke:none;" d="M81 21L81 25L85 25L85 21L81 21z"/>
<path style="fill:#822f25; stroke:none;" d="M88 21L88 25L92 25L92 21L88 21z"/>
<path style="fill:#4a2024; stroke:none;" d="M107 21L107 25L111 25L111 21L107 21z"/>
<path style="fill:#000000; stroke:none;" d="M77 25L77 28L107 28L107 32L111 32L111 28L107 28L107 25L77 25z"/>
<path style="fill:#efb46f; stroke:none;" d="M77 28L77 32L96 32L96 28L77 28z"/>
<path style="fill:#dc8b54; stroke:none;" d="M96 28L96 32L100 32L100 28L96 28z"/>
<path style="fill:#efb46f; stroke:none;" d="M100 28L100 32L103 32L103 28L100 28z"/>
<path style="fill:#dc8b54; stroke:none;" d="M103 28L103 32L107 32L107 36L111 36L111 32L107 32L107 28L103 28z"/>
<path style="fill:#efb46f; stroke:none;" d="M70 32L70 36L74 36L74 32L70 32z"/>
<path style="fill:#dc8b54; stroke:none;" d="M74 32L74 36L66 36C65.1007 38.1236 65.1236 38.1007 63 39L63 43L66 43L66 39L74 39L74 36L81 36L81 32L74 32z"/>
<path style="fill:#ac5438; stroke:none;" d="M81 32L81 36L74 36L74 39L66 39L66 43L59 43L59 47L55 47C54.1007 49.1236 54.1236 49.1007 52 50L52 54L48 54L48 58L55 58L55 54L63 54L63 50L70 50L70 47L77 47L77 43L85 43L85 39L88 39L88 43L92 43L92 39L111 39L111 43L118 43L118 39L122 39L122 43L125 43L125 39L136 39L136 36L144 36L144 32L136 32L136 36C132.116 36 125.982 34.4191 125 39L122 39L122 36L118 36L118 39L114 39L114 36L107 36L107 32L81 32z"/>
<path style="fill:#dc8b54; stroke:none;" d="M133 32L133 36L136 36L136 32L133 32z"/>
<path style="fill:#efb46f; stroke:none;" d="M63 36L63 39L66 39L66 36L63 36z"/>
<path style="fill:#dc8b54; stroke:none;" d="M114 36L114 39L118 39L118 36L114 36M122 36L122 39L125 39L125 36L122 36z"/>
<path style="fill:#822f25; stroke:none;" d="M136 36L136 39L125 39L125 43L122 43L122 39L118 39L118 43L111 43L111 39L92 39L92 43L88 43L88 39L85 39L85 43L77 43L77 47L70 47L70 50L63 50L63 54L55 54L55 58L48 58L48 61L55 61L55 58L66 58L66 54L77 54L77 50L88 50L88 47L129 47L129 50L133 50C133.899 47.8764 133.876 47.8993 136 47L136 43L140 43L140 39L144 39L144 36L136 36z"/>
<path style="fill:#efb46f; stroke:none;" d="M59 39L59 43L63 43L63 39L59 39z"/>
<path style="fill:#4a2024; stroke:none;" d="M140 39L140 43L144 43L144 39L140 39z"/>
<path style="fill:#dc8b54; stroke:none;" d="M55 43L55 47L59 47L59 43L55 43z"/>
<path style="fill:#4a2024; stroke:none;" d="M136 43L136 47C133.636 47.4825 133.482 47.636 133 50L129 50L129 58L133 58L133 54L136 54L136 50L140 50L140 43L136 43z"/>
<path style="fill:#dc8b54; stroke:none;" d="M52 47L52 50L55 50L55 47L52 47z"/>
<path style="fill:#4a2024; stroke:none;" d="M88 47L88 50L92 50L92 47L88 47M125 47L125 50L129 50L129 47L125 47M77 50L77 54L81 54L81 50L77 50z"/>
<path style="fill:#f2c074; stroke:none;" d="M92 50L92 61L96 61L96 65L100 65L100 69L140 69L140 73L173 73L173 87L177 87L177 73L173 73L173 65L177 65L177 61L173 61L173 65L170 65L170 69L140 69L140 65L100 65L100 61L96 61L96 50L92 50z"/>
<path style="fill:#ef9a55; stroke:none;" d="M96 50L96 61L100 61L100 65L103 65L103 61L118 61L118 58L107 58L107 54L103 54L103 50L96 50z"/>
<path style="fill:#f0ab69; stroke:none;" d="M103 50L103 54L118 54L118 50L103 50z"/>
<path style="fill:#ef9a55; stroke:none;" d="M118 50L118 54L122 54L122 61L125 61L125 50L118 50z"/>
<path style="fill:#4a2024; stroke:none;" d="M66 54L66 58L55 58L55 61L48 61L48 65L52 65L52 69L70 69L70 65L74 65L74 58L77 58L77 54L66 54z"/>
<path style="fill:#f0ab69; stroke:none;" d="M81 54L81 58L77 58L77 65L74 65L74 73L70 73L70 80L66 80L66 87L63 87L63 98L59 98L59 106L66 106L66 109L70 109L70 113L74 113L74 117L77 117L77 109L100 109L100 106L107 106L107 109L170 109L170 106L177 106L177 98L159 98L159 95L173 95L173 84L170 84L170 80L173 80L173 73L162 73L162 80L155 80L155 73L140 73L140 69L100 69L100 65L96 65L96 61L92 61L92 54L81 54z"/>
<path style="fill:#000000; stroke:none;" d="M100 54L100 61L103 61L103 54L100 54z"/>
<path style="fill:#bb5f85; stroke:none;" d="M107 54L107 58L118 58L118 54L107 54z"/>
<path style="fill:#000000; stroke:none;" d="M118 54L118 61L122 61L122 54L118 54z"/>
<path style="fill:#bb5f85; stroke:none;" d="M103 61L103 65L125 65L125 61L103 61M177 61L177 65L181 65L181 61L177 61z"/>
<path style="fill:#f0ab69; stroke:none;" d="M199 61L199 69L188 69L188 73L203 73L203 61L199 61z"/>
<path style="fill:#bb5f85; stroke:none;" d="M203 61L203 65L206 65L206 61L203 61M173 65L173 73L177 73L177 65L173 65M181 65L181 73L177 73L177 95L181 95L181 98L203 98L203 87L206 87L206 73L184 73L184 65L181 65z"/>
<path style="fill:#ef9a55; stroke:none;" d="M184 69L184 73L188 73L188 69L184 69M155 73L155 80L162 80L162 73L155 73M170 80L170 84L173 84L173 80L170 80M151 87L151 91L155 91L155 87L151 87z"/>
<path style="fill:#000000; stroke:none;" d="M173 87L173 95L159 95L159 98L181 98L181 102L210 102L210 98L181 98L181 95L177 95L177 87L173 87z"/>
<path style="fill:#ef9a55; stroke:none;" d="M203 87L203 98L210 98L210 87L203 87z"/>
<path style="fill:#1f1236; stroke:none;" d="M26 91L26 95L33 95L33 91L26 91z"/>
<path style="fill:#d35054; stroke:none;" d="M33 91L33 95L26 95L26 98L22 98L22 106L41 106L41 109L48 109L48 106L44 106L44 98L41 98L41 91L33 91z"/>
<path style="fill:#b83854; stroke:none;" d="M41 91L41 98L44 98L44 106L48 106L48 113L55 113L55 117L63 117C63.4824 119.364 63.636 119.518 66 120L66 124L70 124L70 128L74 128L74 120L70 120L70 117L66 117L66 109C63.8764 108.101 63.8993 108.124 63 106L55 106L55 102L52 102L52 98L48 98L48 95L44 95L44 91L41 91z"/>
<path style="fill:#841d50; stroke:none;" d="M44 91L44 95L48 95L48 98L52 98L52 102L55 102L55 98L59 98L59 95L52 95L52 91L44 91z"/>
<path style="fill:#000000; stroke:none;" d="M103 91L103 95L96 95L96 98L103 98L103 95L118 95L118 91L103 91z"/>
<path style="fill:#bb5f85; stroke:none;" d="M210 91L210 106L181 106L181 109L214 109L214 91L210 91z"/>
<path style="fill:#000000; stroke:none;" d="M18 95C17.1007 97.1236 17.1236 97.1007 15 98L15 102L11 102L11 113L7 113L7 117L4 117L4 139L7 139L7 143L11 143L11 161L7 161L7 187L11 187L11 194L15 194L15 198L18 198L18 202L33 202L33 209L37 209L37 187L41 187L41 168L44 168L44 150L48 150L48 135L52 135L52 124L55 124L55 128L59 128L59 132L63 132L63 135L70 135L70 139L74 139L74 143L81 143L81 146L85 146L85 150L88 150L88 154L92 154L92 150L88 150L88 146C85.8764 145.101 85.8993 145.124 85 143L81 143L81 139L74 139L74 135L70 135L70 132L66 132L66 128L63 128L63 124L55 124L55 120L48 120L48 117L44 117L44 113L41 113L41 109L33 109L33 106L22 106L22 98L26 98L26 95L18 95z"/>
<path style="fill:#ef9a55; stroke:none;" d="M66 95L66 98L70 98L70 95L66 95M77 95L77 102L85 102L85 95L77 95z"/>
<path style="fill:#000000; stroke:none;" d="M122 95L122 98L129 98L129 102L159 102L159 98L129 98L129 95L122 95z"/>
<path style="fill:#f2c074; stroke:none;" d="M177 98L177 106L181 106L181 98L177 98z"/>
<path style="fill:#dce0c9; stroke:none;" d="M15 102L15 106L18 106L18 102L15 102z"/>
<path style="fill:#ef9a55; stroke:none;" d="M181 102L181 106L210 106L210 102L181 102z"/>
<path style="fill:#c5c5b1; stroke:none;" d="M15 106L15 120L22 120L22 117C27.0395 117 32.951 116.146 37.8711 117.299C40.0689 117.814 41.8507 119.329 44 120C43.5175 117.636 43.364 117.482 41 117L41 113L33 113L33 109L22 109L22 106L15 106z"/>
<path style="fill:#1f1236; stroke:none;" d="M33 106L33 109L41 109L41 106L33 106z"/>
<path style="fill:#ef9a55; stroke:none;" d="M63 106L63 109L66 109L66 106L63 106M100 106L100 109L88 109L88 113L147 113L147 109L107 109L107 106L100 106M170 106L170 109L181 109L181 106L170 106z"/>
<path style="fill:#1f1236; stroke:none;" d="M41 109L41 113L44 113L44 117L48 117L48 120L55 120L55 124L63 124L63 128L66 128L66 132L70 132L70 135L74 135L74 139L81 139L81 143L85 143C85.4824 145.364 85.636 145.518 88 146L88 150L92 150L92 157L96 157L96 172L100 172L100 165L103 165L103 194L100 194L100 187L96 187L96 194L100 194L100 209L103 209L103 194L107 194L107 209L111 209L111 191L107 191L107 146L100 143L100 150L96 150L96 146L92 146L92 143L85 143L85 139L81 139L81 135L77 135C76.5175 132.636 76.364 132.482 74 132L74 128L70 128L70 124L66 124L66 120C63.8764 119.101 63.8993 119.124 63 117L55 117L55 113L48 113L48 109L41 109z"/>
<path style="fill:#ef9a55; stroke:none;" d="M66 109L66 113L70 113L70 109L66 109z"/>
<path style="fill:#bb5f85; stroke:none;" d="M77 109L77 113L81 113L81 120L88 120L88 124L96 124L96 117L88 117L88 113L81 113L81 109L77 109z"/>
<path style="fill:#454685; stroke:none;" d="M11 113L11 117L7 117L7 120L11 120L11 117L15 117L15 113L11 113z"/>
<path style="fill:#841d50; stroke:none;" d="M66 113L66 117L70 117L70 120L74 120L74 132C76.1236 132.899 76.1007 132.876 77 135L81 135L81 139L85 139L85 143L92 143L92 146L96 146L96 150L100 150L100 139L96 139L96 135L92 135L92 132L88 132L88 128L81 128L81 124L77 124L77 120C74.8764 119.101 74.8993 119.124 74 117L70 117L70 113L66 113z"/>
<path style="fill:#9078a8; stroke:none;" d="M70 113L70 117L74 117L74 113L70 113z"/>
<path style="fill:#ef9a55; stroke:none;" d="M77 113L77 117L81 117L81 113L77 113z"/>
<path style="fill:#3a336d; stroke:none;" d="M11 117L11 120L7 120L7 132L11 132L11 135L15 135L15 117L11 117z"/>
<path style="fill:#a09c8c; stroke:none;" d="M22 117L22 120L15 120L15 124L22 124L22 128L26 128L26 117L22 117z"/>
<path style="fill:#793e36; stroke:none;" d="M26 117L26 120L37 120L37 117L26 117z"/>
<path style="fill:#a09c8c; stroke:none;" d="M37 117L37 128L41 128L41 124L44 124L44 135L48 135L48 124L44 124L44 120C41.8764 119.101 41.8993 119.124 41 117L37 117z"/>
<path style="fill:#9078a8; stroke:none;" d="M74 117C74.4824 119.364 74.636 119.518 77 120L77 124L81 124L81 128L85 128L85 124L88 124L88 120L85 120L85 124L81 124L81 117L74 117z"/>
<path style="fill:#864e84; stroke:none;" d="M96 117L96 124L129 124L129 117L96 117z"/>
<path style="fill:#d38463; stroke:none;" d="M26 120L26 124L29 124L29 120L26 120z"/>
<path style="fill:#b3573e; stroke:none;" d="M29 120L29 124L37 124L37 120L29 120z"/>
<path style="fill:#948c77; stroke:none;" d="M44 120L44 124L48 124L48 120L44 120z"/>
<path style="fill:#c8b1d6; stroke:none;" d="M81 120L81 124L85 124L85 120L81 120z"/>
<path style="fill:#9078a8; stroke:none;" d="M129 120L129 124L125 124L125 128L129 128L129 132L133 132L133 120L129 120z"/>
<path style="fill:#841d50; stroke:none;" d="M133 120L133 139L151 139L151 135L147 135C146.518 132.636 146.364 132.482 144 132L144 128L140 128L140 124L136 124L136 120L133 120z"/>
<path style="fill:#87abb4; stroke:none;" d="M173 120L173 124L181 124L181 120L173 120M188 120L188 124L195 124L195 120L188 120z"/>
<path style="fill:#c5c5b1; stroke:none;" d="M15 124L15 139L22 139L22 135L41 135L41 139L44 139L44 124L41 124L41 128L22 128L22 124L15 124z"/>
<path style="fill:#793e36; stroke:none;" d="M26 124L26 128L37 128L37 124L26 124z"/>
<path style="fill:#1f1236; stroke:none;" d="M52 124L52 132L59 132L59 135L63 135L63 132L59 132L59 128L55 128L55 124L52 124z"/>
<path style="fill:#c8b1d6; stroke:none;" d="M85 124L85 128L88 128L88 132L92 132L92 135L100 135L100 128L92 128L92 124L85 124z"/>
<path style="fill:#9078a8; stroke:none;" d="M92 124L92 128L100 128L100 124L92 124z"/>
<path style="fill:#d35054; stroke:none;" d="M100 124L100 132L103 132L103 124L100 124z"/>
<path style="fill:#b83854; stroke:none;" d="M103 124L103 135L111 135L111 124L103 124z"/>
<path style="fill:#4b3280; stroke:none;" d="M111 124L111 128L114 128L114 124L111 124z"/>
<path style="fill:#d35054; stroke:none;" d="M114 124L114 132L118 132L118 124L114 124z"/>
<path style="fill:#b83854; stroke:none;" d="M118 124L118 132L114 132L114 135L122 135C122.899 132.876 122.876 132.899 125 132L125 124L118 124z"/>
<path style="fill:#6b8497; stroke:none;" d="M173 124L173 128L177 128L177 124L173 124z"/>
<path style="fill:#4a5b83; stroke:none;" d="M177 124L177 128L173 128L173 132L181 132L181 128L188 128L188 132L192 132L192 124L177 124z"/>
<path style="fill:#6b8497; stroke:none;" d="M192 124L192 128L195 128L195 124L192 124z"/>
<path style="fill:#841d50; stroke:none;" d="M111 128L111 135C106.549 134.948 104.016 133.254 100 132C100.482 134.364 100.636 134.518 103 135L103 139L111 139L111 135L114 135L114 139L122 139L122 135L114 135L114 128L111 128z"/>
<path style="fill:#c8b1d6; stroke:none;" d="M125 128L125 135L129 135L129 128L125 128z"/>
<path style="fill:#2e2e61; stroke:none;" d="M181 128L181 132L177 132L177 135L188 135L188 128L181 128z"/>
<path style="fill:#312458; stroke:none;" d="M7 132L7 139L11 139L11 143L15 143L15 135L11 135L11 132L7 132z"/>
<path style="fill:#31124d; stroke:none;" d="M52 132L52 135L48 135L48 143L52 143L52 146L48 146L48 150L44 150L44 168L41 168L41 187L37 187L37 209L52 209L52 205L55 205L55 194L59 194L59 183L63 183L63 209L85 209L85 194L81 194L81 191L88 191L88 198L92 198L92 209L100 209L100 194L96 194L96 187L100 187L100 194L103 194L103 165L100 165L100 172L96 172L96 157L92 157L92 154L88 154L88 150L85 150L85 146L77 146C76.5175 143.636 76.364 143.482 74 143L74 139L66 139L66 135L59 135L59 132L52 132z"/>
<path style="fill:#952b3d; stroke:none;" d="M122 132L122 135L125 135L125 132L122 132z"/>
<path style="fill:#a09c8c; stroke:none;" d="M22 135L22 139L15 139L15 143L22 143L22 146L26 146L26 135L22 135z"/>
<path style="fill:#3f3969; stroke:none;" d="M26 135L26 146L29 146L29 135L26 135z"/>
<path style="fill:#6472a4; stroke:none;" d="M29 135L29 139L33 139L33 135L29 135z"/>
<path style="fill:#3f3969; stroke:none;" d="M33 135L33 146L37 146L37 135L33 135z"/>
<path style="fill:#a09c8c; stroke:none;" d="M37 135L37 146L41 146C41.8993 143.876 41.8764 143.899 44 143L44 139L41 139L41 135L37 135z"/>
<path style="fill:#9d2ea6; stroke:none;" d="M55 135L55 139L59 139L59 143L63 143L63 146L59 146L59 150L63 150C63.6735 147.703 63.9653 147.226 66 146L66 143L63 143L63 139L59 139L59 135L55 135z"/>
<path style="fill:#1f1236; stroke:none;" d="M66 135L66 139L70 139L70 135L66 135z"/>
<path style="fill:#9078a8; stroke:none;" d="M96 135L96 139L103 139L103 143L111 143L111 139L114 139L114 143L118 143L118 146L122 146L122 139L114 139L114 135L111 135L111 139L103 139L103 135L96 135M122 135L122 139L125 139L125 135L122 135z"/>
<path style="fill:#231e4b; stroke:none;" d="M181 135L181 139L188 139L188 135L181 135z"/>
<path style="fill:#464996; stroke:none;" d="M29 139L29 146L33 146L33 139L29 139z"/>
<path style="fill:#6d2d86; stroke:none;" d="M52 139L52 143C54.1236 143.899 54.1007 143.876 55 146L59 146L59 139L52 139z"/>
<path style="fill:#c8b1d6; stroke:none;" d="M100 139L100 143L103 143L103 139L100 139M111 139L111 143L103 143L103 146L107 146L107 154L114 157C113.518 154.636 113.364 154.482 111 154L111 150L118 150L118 143L114 143L114 139L111 139z"/>
<path style="fill:#140c29; stroke:none;" d="M125 139L125 179L129 179L129 165L144 165L144 161L140 161L140 157L136 157L136 143L129 143L129 139L125 139z"/>
<path style="fill:#f0ab69; stroke:none;" d="M177 139L177 146L181 146L181 150L188 150L188 146L181 146L181 143L188 143L188 139L177 139z"/>
<path style="fill:#bb5f85; stroke:none;" d="M188 139L188 143L181 143L181 146L188 146L188 150L181 150L181 146L177 146L177 154L173 154L173 143L170 143L170 157L177 157L177 154L188 154L188 157L192 157L192 139L188 139z"/>
<path style="fill:#c5c5b1; stroke:none;" d="M15 143L15 194L33 194L33 187L29 187L29 183L37 183L37 179L33 179L33 176L37 176L37 165L41 165L41 161L37 161L37 157L41 157L41 154L37 154L37 150L44 150L44 143C41.636 143.482 41.4824 143.636 41 146L22 146L22 143L15 143z"/>
<path style="fill:#560e74; stroke:none;" d="M48 143L48 146L52 146L52 143L48 143z"/>
<path style="fill:#31124d; stroke:none;" d="M59 143L59 146L63 146L63 143L59 143z"/>
<path style="fill:#1f1236; stroke:none;" d="M77 143L77 146L81 146L81 143L77 143M111 143L111 146L114 146L114 143L111 143M136 143L136 146L144 146L144 150L136 150L136 157L140 157L140 161L144 161L144 165L159 165L159 157L151 157L151 154L159 154L159 150L151 150L151 146L159 146L159 143L151 143L151 146L144 146L144 143L136 143z"/>
<path style="fill:#31124d; stroke:none;" d="M144 143L144 146L151 146L151 143L144 143z"/>
<path style="fill:#9078a8; stroke:none;" d="M159 143L159 161L166 161L166 154L162 154L162 143L159 143z"/>
<path style="fill:#c8b1d6; stroke:none;" d="M162 143L162 154L166 154L166 143L162 143z"/>
<path style="fill:#560e74; stroke:none;" d="M52 146L52 150L55 150L55 154L59 154L59 146L52 146z"/>
<path style="fill:#1f1236; stroke:none;" d="M122 146L122 154L118 154L118 161L111 161L111 165L114 165L114 172L111 172C111.211 174.739 111.303 175.422 114 176L114 179L111 179L111 183L114 183L114 191L118 191L118 176L122 176L122 183L125 183L125 146L122 146z"/>
<path style="fill:#31124d; stroke:none;" d="M136 146L136 150L144 150L144 146L136 146M151 146L151 150L159 150L159 146L151 146z"/>
<path style="fill:#a09c8c; stroke:none;" d="M37 150L37 154L41 154L41 150L37 150z"/>
<path style="fill:#9d2ea6; stroke:none;" d="M70 150L70 154L66 154L66 157L70 157L70 154L74 154C74.4825 156.364 74.636 156.518 77 157L77 161L81 161L81 157L77 157C76.5176 154.636 76.364 154.482 74 154L74 150L70 150z"/>
<path style="fill:#1f1236; stroke:none;" d="M111 150L111 154L114 154L114 150L111 150z"/>
<path style="fill:#9078a8; stroke:none;" d="M114 150L114 154L118 154L118 150L114 150z"/>
<path style="fill:#31124d; stroke:none;" d="M144 150L144 154L151 154L151 150L144 150z"/>
<path style="fill:#383644; stroke:none;" d="M18 154L18 157L22 157L22 154L18 154z"/>
<path style="fill:#4c4b5a; stroke:none;" d="M22 154L22 157L18 157L18 165L22 165L22 157L29 157L29 165L33 165L33 157L29 157L29 154L22 154z"/>
<path style="fill:#383644; stroke:none;" d="M29 154L29 157L33 157L33 154L29 154z"/>
<path style="fill:#31124d; stroke:none;" d="M70 154L70 157L66 157L66 161L70 161L70 165L74 165L74 161L77 161L77 157C74.8764 156.101 74.8993 156.124 74 154L70 154z"/>
<path style="fill:#6d2d86; stroke:none;" d="M85 154L85 157L88 157L88 154L85 154z"/>
<path style="fill:#ca5546; stroke:none;" d="M100 154L100 157L103 157L103 154L100 154z"/>
<path style="fill:#000000; stroke:none;" d="M107 154L107 191L111 191L111 209L114 209L114 191L111 191L111 187L114 187L114 183L111 183L111 172L114 172L114 168L111 168L111 154L107 154z"/>
<path style="fill:#31124d; stroke:none;" d="M151 154L151 157L159 157L159 154L151 154z"/>
<path style="fill:#000000; stroke:none;" d="M177 154L177 157L181 157L181 154L177 154z"/>
<path style="fill:#f0ab69; stroke:none;" d="M181 154L181 157L188 157L188 154L181 154z"/>
<path style="fill:#dce0c9; stroke:none;" d="M22 157L22 176L26 176L26 161L29 161L29 157L22 157z"/>
<path style="fill:#a09c8c; stroke:none;" d="M37 157L37 161L41 161L41 157L37 157z"/>
<path style="fill:#6d2d86; stroke:none;" d="M52 157L52 161L55 161L55 157L52 157z"/>
<path style="fill:#560e74; stroke:none;" d="M63 157L63 161L66 161L66 157L63 157z"/>
<path style="fill:#6d2d86; stroke:none;" d="M70 157L70 161L74 161L74 157L70 157z"/>
<path style="fill:#9078a8; stroke:none;" d="M111 157L111 161L114 161L114 157L111 157z"/>
<path style="fill:#2e2e61; stroke:none;" d="M177 157L177 161L173 161C172.326 163.297 172.035 163.774 170 165L170 168L173 168L173 172L170 172C170.211 174.739 170.303 175.422 173 176L173 179L170 179L170 191L173 191L173 198L177 198L177 202L181 202L181 194L177 194L177 187L173 187L173 179L177 179L177 176C179.297 176.674 179.774 176.965 181 179L184 179L184 176L188 176L188 172L184 172L184 168L188 168L188 165L184 165L184 161L188 161L188 157L184 157L184 161L181 161L181 157L177 157z"/>
<path style="fill:#231e4b; stroke:none;" d="M181 157L181 161L184 161L184 157L181 157z"/>
<path style="fill:#a09c8c; stroke:none;" d="M11 161L11 176L15 176L15 161L11 161z"/>
<path style="fill:#560e74; stroke:none;" d="M48 161L48 172L52 172L52 176L55 176L55 172L52 172L52 161L48 161z"/>
<path style="fill:#31124d; stroke:none;" d="M52 161L52 165L55 165L55 161L52 161z"/>
<path style="fill:#9d2ea6; stroke:none;" d="M55 161L55 165L59 165L59 161L55 161z"/>
<path style="fill:#560e74; stroke:none;" d="M66 161L66 165L70 165L70 161L66 161z"/>
<path style="fill:#6d2d86; stroke:none;" d="M74 161L74 165L77 165L77 161L74 161z"/>
<path style="fill:#6b8497; stroke:none;" d="M166 161L166 165L170 165L170 161L166 161z"/>
<path style="fill:#231e4b; stroke:none;" d="M177 161L177 165L181 165L181 168L177 168L177 172L181 172L181 176L184 176L184 172L181 172C181.674 169.703 181.965 169.226 184 168L184 165L181 165L181 161L177 161M184 161L184 165L188 165L188 161L184 161z"/>
<path style="fill:#87abb4; stroke:none;" d="M188 161L188 168L192 168L192 176L195 176L195 183L199 183L199 176L195 176L195 168L192 168L192 161L188 161z"/>
<path style="fill:#383644; stroke:none;" d="M18 165L18 168L22 168L22 165L18 165M29 165L29 168L33 168L33 165L29 165z"/>
<path style="fill:#a09c8c; stroke:none;" d="M37 165L37 168L41 168L41 165L37 165z"/>
<path style="fill:#6d2d86; stroke:none;" d="M52 165C52.4825 167.364 52.636 167.518 55 168L55 172L59 172L59 165L52 165z"/>
<path style="fill:#560e74; stroke:none;" d="M70 165L70 168L74 168L74 165L70 165z"/>
<path style="fill:#9e3840; stroke:none;" d="M111 165L111 168L114 168L114 165L111 165z"/>
<path style="fill:#ccc771; stroke:none;" d="M159 165L159 168L155 168L155 172L159 172L159 179L162 179L162 183L166 183L166 179L162 179L162 176L166 176L166 172L162 172L162 168L166 168L166 165L159 165z"/>
<path style="fill:#000000; stroke:none;" d="M166 165L166 168L162 168L162 172L166 172L166 176L162 176L162 179L166 179L166 183L170 183L170 179L166 179L166 176L170 176L170 172L166 172L166 168L170 168L170 165L166 165z"/>
<path style="fill:#4a5b83; stroke:none;" d="M173 165L173 168L177 168L177 165L173 165z"/>
<path style="fill:#2e2e61; stroke:none;" d="M177 165L177 168L181 168L181 165L177 165z"/>
<path style="fill:#a09c8c; stroke:none;" d="M29 168L29 176L33 176L33 168L29 168z"/>
<path style="fill:#31124d; stroke:none;" d="M52 168L52 172L55 172L55 168L52 168z"/>
<path style="fill:#841d50; stroke:none;" d="M129 168L129 176L133 176L133 172L136 172L136 179L140 179L140 183L144 183L144 179C146.364 178.518 146.518 178.364 147 176L151 176L151 168L129 168z"/>
<path style="fill:#6b8497; stroke:none;" d="M166 168L166 172L170 172L170 168L166 168z"/>
<path style="fill:#4a5b83; stroke:none;" d="M170 168L170 172L173 172L173 168L170 168M184 168L184 172L188 172L188 168L184 168z"/>
<path style="fill:#6b8497; stroke:none;" d="M188 168L188 179L192 179L192 168L188 168z"/>
<path style="fill:#6d2d86; stroke:none;" d="M85 172L85 176L88 176L88 172L85 172z"/>
<path style="fill:#2e2363; stroke:none;" d="M133 172L133 176L129 176L129 179L133 179L133 183L129 183L129 198L133 198L133 194C135.364 193.518 135.518 193.364 136 191L140 191L140 187L144 187L144 183L140 183L140 179L136 179L136 172L133 172z"/>
<path style="fill:#31124d; stroke:none;" d="M151 172L151 176L147 176C146.101 178.124 146.124 178.101 144 179L144 194L147 194L147 198L151 198L151 202L155 202L155 198L159 198L159 194C161.364 193.518 161.518 193.364 162 191L166 191L166 187L162 187L162 183L159 183L159 179L155 179L155 172L151 172z"/>
<path style="fill:#4a5b83; stroke:none;" d="M173 172L173 176L177 176L177 172L173 172z"/>
<path style="fill:#7c7971; stroke:none;" d="M11 176L11 179L15 179L15 176L11 176M22 176L22 179L26 179L26 176L22 176z"/>
<path style="fill:#a09c8c; stroke:none;" d="M33 176L33 179L37 179L37 176L33 176z"/>
<path style="fill:#560e74; stroke:none;" d="M81 176L81 179L85 179L85 183L88 183L88 179L92 179L92 176C89.2614 176.211 88.578 176.303 88 179L85 179L85 176L81 176z"/>
<path style="fill:#31124d; stroke:none;" d="M85 176L85 179L88 179L88 176L85 176z"/>
<path style="fill:#1f1236; stroke:none;" d="M96 176L96 179L100 179L100 176L96 176z"/>
<path style="fill:#9e3840; stroke:none;" d="M111 176L111 179L114 179L114 176L111 176z"/>
<path style="fill:#140c29; stroke:none;" d="M118 176L118 191L114 191L114 209L125 209L125 183L122 183L122 176L118 176z"/>
<path style="fill:#6b8497; stroke:none;" d="M166 176L166 179L170 179L170 176L166 176z"/>
<path style="fill:#4a5b83; stroke:none;" d="M170 176L170 179L173 179L173 176L170 176M177 176L177 179L173 179L173 183L177 183L177 194L181 194L181 198L188 198L188 194L192 194L192 183L195 183L195 187L199 187L199 183L195 183L195 176L192 176L192 183L177 183L177 179L181 179L181 176L177 176M184 176L184 179L188 179L188 176L184 176z"/>
<path style="fill:#a09c8c; stroke:none;" d="M11 179L11 183L15 183L15 179L11 179z"/>
<path style="fill:#7c7971; stroke:none;" d="M26 179L26 183L29 183L29 179L26 179z"/>
<path style="fill:#6d2d86; stroke:none;" d="M70 179L70 183L74 183L74 179L70 179z"/>
<path style="fill:#cb4c5f; stroke:none;" d="M129 179L129 183L133 183L133 179L129 179M151 179L151 183L155 183L155 179L151 179z"/>
<path style="fill:#231e4b; stroke:none;" d="M177 179L177 183L192 183L192 179L177 179z"/>
<path style="fill:#7c7971; stroke:none;" d="M11 183L11 187L15 187L15 183L11 183M29 183L29 187L37 187L37 183L29 183z"/>
<path style="fill:#1f1236; stroke:none;" d="M59 183L59 194L55 194L55 205L52 205L52 209L63 209L63 183L59 183z"/>
<path style="fill:#6b8497; stroke:none;" d="M166 183L166 187L170 187L170 183L166 183z"/>
<path style="fill:#231e4b; stroke:none;" d="M173 183L173 187L177 187L177 183L173 183M192 183L192 187L195 187L195 183L192 183z"/>
<path style="fill:#560e74; stroke:none;" d="M44 187L44 191L48 191L48 187L44 187z"/>
<path style="fill:#9e3840; stroke:none;" d="M111 187L111 191L114 191L114 187L111 187z"/>
<path style="fill:#cb4c5f; stroke:none;" d="M133 187L133 191L136 191L136 187L133 187M155 187L155 191L159 191L159 187L155 187z"/>
<path style="fill:#000000; stroke:none;" d="M181 187L181 191L184 191L184 187L181 187z"/>
<path style="fill:#87abb4; stroke:none;" d="M192 187L192 198L195 198L195 187L192 187z"/>
<path style="fill:#560e74; stroke:none;" d="M81 191L81 194L85 194L85 191L81 191z"/>
<path style="fill:#1f1236; stroke:none;" d="M85 191L85 209L92 209L92 198L88 198L88 191L85 191z"/>
<path style="fill:#a09c8c; stroke:none;" d="M18 194L18 198L33 198L33 194L18 194z"/>
<path style="fill:#31124d; stroke:none;" d="M103 194L103 209L107 209L107 194L103 194z"/>
<path style="fill:#2e2e61; stroke:none;" d="M188 194L188 198L192 198L192 194L188 194z"/>
<path style="fill:#560e74; stroke:none;" d="M66 198L66 202L70 202L70 198L66 198z"/>
<path style="fill:#cb4c5f; stroke:none;" d="M140 198L140 202L147 205C146.518 202.636 146.364 202.482 144 202L144 198L140 198z"/>
<path style="fill:#9fadb7; stroke:none;" d="M181 198L181 202L188 202L188 198L181 198z"/>
<path style="fill:#6b8497; stroke:none;" d="M188 198L188 202L192 202L192 198L188 198z"/>
<path style="fill:#841d50; stroke:none;" d="M151 205L151 209L155 209L155 205L151 205z"/>
<path style="fill:#f1f2f4; stroke:none;" d="M0 209C5.95102 211.497 14.5798 210 21 210L66 210L222 210C216.049 207.503 207.42 209 201 209L156 209L0 209z"/>
</svg>
